<svg xmlns="http://www.w3.org/2000/svg" shape-rendering="geometricPrecision" text-rendering="geometricPrecision" image-rendering="optimizeQuality" fill-rule="evenodd" clip-rule="evenodd" viewBox="0 0 512 512"><path d="M0 256c0 141.39 114.62 256 256 256 141.39 0 256-114.61 256-256C512 114.62 397.39 0 256 0 114.62 0 0 114.62 0 256zm211.58 88.56c-3.96 4.07-3.91 10.63.12 14.63s10.52 3.95 14.48-.12l94.23-97.13c3.95-4.06 3.91-10.58-.08-14.59l-94.23-94.5c-4-4.02-10.49-4-14.48.05s-3.97 10.6.04 14.62l87.02 87.27-87.1 89.77z"/></svg>